<svg width="11" height="30" viewBox="0 0 11 30" fill="none" xmlns="http://www.w3.org/2000/svg">
<path d="M4.06862 16.6667H1.53655C0.521041 16.6667 -0.22977 15.6606 0.0645236 14.6315C2.5213 6.04085 7.46397 1.33389 9.77962 0L5.58148 15.4605C5.38755 16.1747 4.77048 16.6667 4.06862 16.6667Z" fill="#00B0B9"/>
<path d="M8.18131 15.8333H9.40795C10.4097 15.8333 11.1584 16.8143 10.8847 17.8346C8.97196 24.9645 5.24213 28.8803 3.48305 30L6.65789 17.0803C6.83836 16.3459 7.4646 15.8333 8.18131 15.8333Z" fill="#00B0B9"/>
<path d="M1.51548 15.4167C0.256167 15.4167 0.203695 14.5833 0.334874 14.1667C-0.609611 15.8333 0.728409 16.5278 1.51548 16.6667H4.27021C5.52952 16.6667 6.36907 15 6.63142 14.1667L9.77962 0C8.46783 4.30556 5.76564 13.1667 5.45082 14.1667C5.13599 15.1667 4.53257 15.4167 4.27021 15.4167H1.51548Z" fill="#00B0B9"/>
<path d="M10.4795 16.8958C11.3926 16.8958 10.6618 18.3958 10.5667 18.75C11.2515 17.3333 11.0502 15.9514 10.4795 15.8333H7.47763C6.56455 15.8333 5.95583 17.25 5.7656 17.9583L3.48305 30C4.43418 26.3403 6.39335 18.8083 6.62162 17.9583C6.84989 17.1083 7.28741 16.8958 7.47763 16.8958H10.4795Z" fill="#00B0B9"/>
</svg>
