<svg width="24" height="24" viewBox="0 0 24 24" fill="none" xmlns="http://www.w3.org/2000/svg">
<path fill-rule="evenodd" clip-rule="evenodd" d="M10 5C9.44772 5 9 5.44772 9 6C9 6.55228 9.44771 7 10 7H20C20.5523 7 21 6.55228 21 6C21 5.44772 20.5523 5 20 5H10ZM6.53033 9.53033C6.82322 9.23744 6.82322 8.76256 6.53033 8.46967C6.23744 8.17678 5.76256 8.17678 5.46967 8.46967L2.47011 11.4692L2.46967 11.4697C2.37642 11.5629 2.31286 11.6746 2.27899 11.793C2.20646 12.0465 2.27002 12.3307 2.46967 12.5303L5.46967 15.5303C5.76256 15.8232 6.23744 15.8232 6.53033 15.5303C6.82322 15.2374 6.82322 14.7626 6.53033 14.4697L5.06066 13H20C20.5523 13 21 12.5523 21 12C21 11.4477 20.5523 11 20 11H5.06066L6.53033 9.53033ZM9 18C9 17.4477 9.44772 17 10 17H20C20.5523 17 21 17.4477 21 18C21 18.5523 20.5523 19 20 19H10C9.44771 19 9 18.5523 9 18Z" fill="#00B0B9"/>
</svg>
