<svg width="23" height="24" viewBox="0 0 23 24" fill="none" xmlns="http://www.w3.org/2000/svg">
<path fill-rule="evenodd" clip-rule="evenodd" d="M13.25 5C13.8023 5 14.25 5.44772 14.25 6C14.25 6.55228 13.8023 7 13.25 7H3.25C2.69772 7 2.25 6.55228 2.25 6C2.25 5.44772 2.69772 5 3.25 5H13.25ZM16.7197 9.53033C16.4268 9.23744 16.4268 8.76256 16.7197 8.46967C17.0126 8.17678 17.4874 8.17678 17.7803 8.46967L20.7799 11.4692L20.7803 11.4697C20.8736 11.5629 20.9371 11.6746 20.971 11.793C21.0435 12.0465 20.98 12.3307 20.7803 12.5303L17.7803 15.5303C17.4874 15.8232 17.0126 15.8232 16.7197 15.5303C16.4268 15.2374 16.4268 14.7626 16.7197 14.4697L18.1893 13H3.25C2.69772 13 2.25 12.5523 2.25 12C2.25 11.4477 2.69772 11 3.25 11H18.1893L16.7197 9.53033ZM14.25 18C14.25 17.4477 13.8023 17 13.25 17H3.25C2.69772 17 2.25 17.4477 2.25 18C2.25 18.5523 2.69772 19 3.25 19H13.25C13.8023 19 14.25 18.5523 14.25 18Z" fill="#00B0B9"/>
</svg>
