<svg width="24" height="24" viewBox="0 0 24 24" fill="none" xmlns="http://www.w3.org/2000/svg">
<path fill-rule="evenodd" clip-rule="evenodd" d="M14.0945 4.90379C14.3175 4.74091 14.3662 4.4281 14.2033 4.20511C14.0404 3.98212 13.7276 3.9334 13.5046 4.09628C12.2914 4.98246 11.5 6.39912 11.5 8.00003C11.5 9.60095 12.2914 11.0176 13.5046 11.9038C13.7276 12.0667 14.0404 12.0179 14.2033 11.795C14.3662 11.572 14.3175 11.2592 14.0945 11.0963C13.1222 10.3861 12.5 9.26142 12.5 8.00003C12.5 6.73865 13.1222 5.61401 14.0945 4.90379ZM19.4954 4.09628C19.2724 3.9334 18.9596 3.98212 18.7967 4.20511C18.6338 4.4281 18.6825 4.74091 18.9055 4.90379C19.8778 5.61401 20.5 6.73865 20.5 8.00003C20.5 9.26142 19.8778 10.3861 18.9055 11.0963C18.6825 11.2592 18.6338 11.572 18.7967 11.795C18.9596 12.0179 19.2724 12.0667 19.4954 11.9038C20.7086 11.0176 21.5 9.60095 21.5 8.00003C21.5 6.39912 20.7086 4.98246 19.4954 4.09628ZM15.3995 5.6997C15.5654 5.92047 15.5209 6.23391 15.3001 6.39978C14.8133 6.76552 14.5 7.34612 14.5 8.00003C14.5 8.65395 14.8133 9.23455 15.3001 9.60029C15.5209 9.76616 15.5654 10.0796 15.3995 10.3004C15.2336 10.5211 14.9202 10.5657 14.6994 10.3998C13.972 9.85329 13.5 8.98172 13.5 8.00003C13.5 7.01835 13.972 6.14678 14.6994 5.60029C14.9202 5.43442 15.2336 5.47892 15.3995 5.6997ZM17.6005 5.6997C17.7664 5.47892 18.0798 5.43442 18.3006 5.60029C19.028 6.14678 19.5 7.01835 19.5 8.00003C19.5 8.98172 19.028 9.85329 18.3006 10.3998C18.0798 10.5657 17.7664 10.5211 17.6005 10.3004C17.4346 10.0796 17.4791 9.76616 17.6999 9.60029C18.1867 9.23455 18.5 8.65395 18.5 8.00003C18.5 7.34612 18.1867 6.76552 17.6999 6.39978C17.4791 6.23391 17.4346 5.92047 17.6005 5.6997ZM16.5 7C16.2239 7 16 7.22386 16 7.5V14H4C2.89543 14 2 14.8954 2 16V18C2 19.1046 2.89543 20 4 20H18C19.1046 20 20 19.1046 20 18V16C20 14.8954 19.1046 14 18 14H17V7.5C17 7.22386 16.7761 7 16.5 7ZM16.5 15H4C3.44772 15 3 15.4477 3 16V18C3 18.5523 3.44772 19 4 19H18C18.5523 19 19 18.5523 19 18V16C19 15.4477 18.5523 15 18 15H16.5ZM6 17C6 17.5523 5.55228 18 5 18C4.44772 18 4 17.5523 4 17C4 16.4477 4.44772 16 5 16C5.55228 16 6 16.4477 6 17ZM8 18C8.55228 18 9 17.5523 9 17C9 16.4477 8.55228 16 8 16C7.44772 16 7 16.4477 7 17C7 17.5523 7.44772 18 8 18ZM12 17C12 17.5523 11.5523 18 11 18C10.4477 18 10 17.5523 10 17C10 16.4477 10.4477 16 11 16C11.5523 16 12 16.4477 12 17Z" fill="#00B0B9"/>
</svg>
