<svg width="24" height="24" viewBox="0 0 24 24" fill="none" xmlns="http://www.w3.org/2000/svg">
<path fill-rule="evenodd" clip-rule="evenodd" d="M19 4H5C4.44772 4 4 4.44772 4 5V7C4 7.55228 4.44772 8 5 8H19C19.5523 8 20 7.55228 20 7V5C20 4.44772 19.5523 4 19 4ZM5 3C3.89543 3 3 3.89543 3 5V7C3 8.10457 3.89543 9 5 9H7C5.89543 9 5 9.89543 5 11V13C5 14.1046 5.89543 15 7 15H5C3.89543 15 3 15.8954 3 17V19C3 20.1046 3.89543 21 5 21H19C20.1046 21 21 20.1046 21 19V17C21 15.8954 20.1046 15 19 15H21C22.1046 15 23 14.1046 23 13V11C23 9.89543 22.1046 9 21 9H19C20.1046 9 21 8.10457 21 7V5C21 3.89543 20.1046 3 19 3H5ZM21 10H7C6.44772 10 6 10.4477 6 11V13C6 13.5523 6.44772 14 7 14H21C21.5523 14 22 13.5523 22 13V11C22 10.4477 21.5523 10 21 10ZM5 16H19C19.5523 16 20 16.4477 20 17V19C20 19.5523 19.5523 20 19 20H5C4.44772 20 4 19.5523 4 19V17C4 16.4477 4.44772 16 5 16Z" fill="#1E1E1E"/>
</svg>
