<svg width="24" height="24" viewBox="0 0 24 24" fill="none" xmlns="http://www.w3.org/2000/svg">
<path fill-rule="evenodd" clip-rule="evenodd" d="M15 6C15.5523 6 16 5.55228 16 5C16 4.44772 15.5523 4 15 4C14.4477 4 14 4.44772 14 5C14 5.55228 14.4477 6 15 6ZM15 7C16.1046 7 17 6.10457 17 5C17 3.89543 16.1046 3 15 3C13.8954 3 13 3.89543 13 5C13 5.74532 13.4077 6.39542 14.0122 6.73946L13.2778 8.20843C12.8765 8.07326 12.4468 8 12 8C9.79086 8 8 9.79086 8 12C8 12.549 8.11059 13.0721 8.3107 13.5484L6.68238 14.5769C6.40783 14.2257 5.98028 14 5.5 14C4.67157 14 4 14.6716 4 15.5C4 16.3284 4.67157 17 5.5 17C6.30924 17 6.9688 16.3592 6.99893 15.5573L7 15.559L8.81109 14.4151C9.54152 15.3781 10.6981 16 12 16C12.8492 16 13.6365 15.7354 14.2841 15.2841L16.1768 17.1768C16.0632 17.4278 16 17.7065 16 18C16 19.1046 16.8954 20 18 20C19.1046 20 20 19.1046 20 18C20 16.8954 19.1046 16 18 16C17.5534 16 17.1409 16.1464 16.8081 16.3938L15.028 14.6138C15.6337 13.9127 16 12.9991 16 12C16 10.5941 15.2747 9.35761 14.1778 8.6443L15 7ZM12 15C13.6569 15 15 13.6569 15 12C15 10.3431 13.6569 9 12 9C10.3431 9 9 10.3431 9 12C9 13.6569 10.3431 15 12 15Z" fill="#1E1E1E"/>
</svg>
