<svg width="36" height="36" viewBox="0 0 36 36" fill="none" xmlns="http://www.w3.org/2000/svg">
<circle cx="18" cy="18" r="14.5" stroke="#00B0B9"/>
<path d="M15.4821 19.3674L15.423 19.1525L15.2236 19.0528C13.2343 18.0581 13.2438 16.2364 13.2494 15.159C13.2497 15.104 13.25 15.0509 13.25 15C13.25 13.4363 13.707 12.0559 14.5176 11.0761C15.3203 10.1059 16.4912 9.5 18 9.5C19.5088 9.5 20.6797 10.1059 21.4824 11.0761C22.293 12.0559 22.75 13.4363 22.75 15C22.75 15.0509 22.7503 15.104 22.7506 15.159C22.7562 16.2364 22.7657 18.0581 20.7764 19.0528L20.577 19.1525L20.5179 19.3674C20.484 19.4908 20.428 19.6275 20.3573 19.8004C20.3416 19.839 20.325 19.8794 20.3079 19.9218C20.2244 20.1282 20.1215 20.3928 20.0857 20.6497C20.0488 20.914 20.0701 21.2777 20.3672 21.5537C20.6349 21.8026 21.0215 21.875 21.4304 21.875C21.8079 21.875 22.3232 21.9928 22.9083 22.2123C23.4852 22.4287 24.0955 22.7309 24.6523 23.0682C25.2111 23.4069 25.6995 23.771 26.0411 24.1054C26.2121 24.2728 26.335 24.4218 26.4122 24.5459C26.493 24.676 26.5 24.7407 26.5 24.75C26.5 25.7165 25.7165 26.5 24.75 26.5H11.25C10.2835 26.5 9.5 25.7165 9.5 24.75C9.5 24.7407 9.50701 24.676 9.58783 24.5459C9.66497 24.4218 9.78788 24.2728 9.95893 24.1054C10.3005 23.771 10.7889 23.4069 11.3477 23.0682C11.9045 22.7309 12.5148 22.4287 13.0917 22.2123C13.6768 21.9928 14.1921 21.875 14.5696 21.875C14.9785 21.875 15.3651 21.8026 15.6328 21.5537C15.9299 21.2777 15.9512 20.914 15.9143 20.6497C15.8785 20.3928 15.7756 20.1282 15.6921 19.9218C15.675 19.8794 15.6584 19.839 15.6426 19.8004C15.572 19.6275 15.516 19.4908 15.4821 19.3674Z" stroke="#00B0B9"/>
</svg>
